<svg width="148" height="148" viewBox="0 0 148 148" fill="none" xmlns="http://www.w3.org/2000/svg">
<g clip-path="url(#clip0_1_381)">
<circle cx="74" cy="74" r="73.5" stroke="white"/>
<path d="M75.4142 28.5858C74.6332 27.8047 73.3668 27.8047 72.5858 28.5858L59.8579 41.3137C59.0768 42.0948 59.0768 43.3611 59.8579 44.1421C60.6389 44.9232 61.9052 44.9232 62.6863 44.1421L74 32.8284L85.3137 44.1421C86.0948 44.9232 87.3611 44.9232 88.1421 44.1421C88.9232 43.3611 88.9232 42.0948 88.1421 41.3137L75.4142 28.5858ZM72 30L72 66L76 66L76 30L72 30Z" fill="white"/>
<path d="M50.6088 84.276H56.7128V102H59.4568V84.276H65.5328V81.756H50.6088V84.276ZM64.7326 95.14C64.7326 99.368 67.7566 102.336 71.8726 102.336C75.9606 102.336 78.9846 99.368 78.9846 95.14C78.9846 90.912 75.9606 87.944 71.8726 87.944C67.7566 87.944 64.7326 90.912 64.7326 95.14ZM67.3926 95.14C67.3926 92.284 69.2126 90.296 71.8726 90.296C74.5046 90.296 76.3526 92.284 76.3526 95.14C76.3526 97.996 74.5046 99.984 71.8726 99.984C69.2126 99.984 67.3926 97.996 67.3926 95.14ZM81.8981 108.132H84.5301V99.76C85.4261 101.44 87.2461 102.364 89.4301 102.364C93.4901 102.364 95.7861 99.228 95.7861 95.056C95.7861 90.856 93.3501 87.916 89.4301 87.916C87.2461 87.916 85.3981 88.896 84.4741 90.772L84.2781 88.308H81.8981V108.132ZM84.5581 95.168C84.5581 92.312 86.1821 90.324 88.8701 90.324C91.5581 90.324 93.1541 92.34 93.1541 95.168C93.1541 97.968 91.5581 99.984 88.8701 99.984C86.1821 99.984 84.5581 97.968 84.5581 95.168Z" fill="white"/>
</g>
<defs>
<clipPath id="clip0_1_381">
<rect width="148" height="148" fill="white"/>
</clipPath>
</defs>
</svg>
