<svg width="195" height="196" viewBox="0 0 195 196" fill="none" xmlns="http://www.w3.org/2000/svg">
<path d="M22.3531 82.3034L23.0122 80.0651L19.4012 77.6118C18.0161 76.693 17.4076 76.3298 17.0027 76.1084C17.4951 76.1716 18.4401 76.225 19.7734 76.2089L24.1753 76.1151L24.8067 73.9708L16.462 68.0184L15.7475 70.4448L19.3695 72.8604C19.9028 73.2013 20.9239 73.8291 21.5755 74.1845C20.9216 74.1146 19.4189 74.0809 19.0095 74.083L14.6564 74.1502L13.9696 76.4826L17.5805 78.9358C18.4136 79.5081 18.9468 79.8491 19.7998 80.2842C18.8847 80.1987 18.0205 80.1487 17.2261 80.1396L12.8785 80.188L12.1751 82.5768L22.3531 82.3034Z" fill="black"/>
<path d="M26.1045 49.4222C25.8112 49.7003 25.5991 49.9604 25.42 50.2416C24.725 51.3333 24.7759 52.4582 25.3653 53.3215L24.1007 52.6791L22.8896 54.5812L31.0439 59.7727L32.3287 57.7548L28.359 55.2275C26.7712 54.2166 26.573 52.8119 27.4996 51.3564L27.9735 50.6121L26.1045 49.4222Z" fill="black"/>
<path d="M33.0247 37.7325C33.5632 37.1622 33.537 36.2475 32.9525 35.6956C32.368 35.1437 31.4675 35.1834 30.929 35.7536C30.3637 36.3524 30.3756 37.2536 30.9601 37.8056C31.5446 38.3575 32.4594 38.3313 33.0247 37.7325ZM40.6577 46.585L42.3 44.8457L35.2573 38.1956L33.615 39.9349L40.6577 46.585Z" fill="black"/>
<path d="M52.492 35.9446L47.9481 29.7453L49.4663 28.6325L48.2839 27.0194L46.7657 28.1322L44.9806 25.6967L43.0512 27.1109L44.8364 29.5464L43.334 30.6476L44.5163 32.2606L46.0187 31.1594L50.5626 37.3588L52.492 35.9446Z" fill="black"/>
<path d="M58.5315 18.7542C59.2374 18.4123 59.5378 17.5479 59.1874 16.8244C58.837 16.1008 57.9812 15.8181 57.2753 16.16C56.5341 16.5189 56.2252 17.3656 56.5755 18.0892C56.9259 18.8127 57.7903 19.1131 58.5315 18.7542ZM62.5226 29.7405L64.6756 28.6979L60.454 19.98L58.301 21.0226L62.5226 29.7405Z" fill="black"/>
<path d="M76.5597 24.1267L75.38 19.0462C75.0252 17.5183 75.6732 16.3211 77.1056 15.9884C78.3089 15.709 79.2694 16.2912 79.6375 17.8765L80.8571 23.1289L83.1873 22.5878L81.8391 16.7815C81.2714 14.3367 79.7075 13.1499 77.3391 13.6998C76.0595 13.997 75.0421 14.817 74.6717 15.9094L74.1969 14.7314L72.0386 15.2326L74.2295 24.6678L76.5597 24.1267Z" fill="black"/>
<path d="M95.1459 15.9535C94.9759 18.7522 96.6517 20.9166 99.3918 21.0831C100.781 21.1675 102.01 20.6724 102.671 19.8089L102.574 21.4138C102.476 23.0187 101.356 23.9918 99.7123 23.892C98.2444 23.8028 97.3305 23.0008 97.25 21.7387L94.8623 21.5937C94.9989 24.195 96.8011 25.8956 99.5803 26.0644C102.712 26.2546 104.772 24.3564 104.968 21.1271L105.526 11.9479L103.314 11.8136L103.096 13.1361C102.591 12.0644 101.493 11.3887 100.045 11.3007C97.2852 11.1331 95.3171 13.1351 95.1459 15.9535ZM97.5568 16.041C97.6531 14.4556 98.7434 13.3236 100.329 13.4199C101.992 13.5209 102.921 14.7167 102.822 16.3607C102.719 18.0439 101.632 19.1368 99.9875 19.037C98.4218 18.9419 97.4582 17.6654 97.5568 16.041Z" fill="black"/>
<path d="M132.791 24.2647C131.254 26.9319 131.901 29.6582 134.449 31.1267C136.641 32.3896 139.045 31.9873 140.426 30.1805L138.336 28.9763C137.587 29.7664 136.563 29.8551 135.526 29.2579C134.201 28.4943 133.954 27.039 134.864 25.4591C135.775 23.8791 137.236 23.3858 138.561 24.1495C139.546 24.7173 139.959 25.6113 139.648 26.6998L141.721 27.8942C142.665 25.7452 141.836 23.5704 139.543 22.2487C137.063 20.8194 134.289 21.6654 132.791 24.2647Z" fill="black"/>
<path d="M150.818 36.0334C148.662 38.1478 148.702 41.157 150.803 43.2988C152.903 45.4406 155.911 45.5391 158.067 43.4247C160.223 41.3104 160.183 38.3012 158.082 36.1594C155.981 34.0176 152.974 33.919 150.818 36.0334ZM152.493 37.7413C153.753 36.5056 155.403 36.48 156.556 37.6559C157.709 38.8318 157.652 40.4812 156.392 41.7169C155.132 42.9526 153.482 42.9781 152.329 41.8023C151.175 40.6264 151.233 38.9769 152.493 37.7413Z" fill="black"/>
<path d="M163.496 59.6555C164.184 60.9552 165.343 61.7615 166.606 61.7585L165.345 62.6035L166.373 64.5444L179.266 57.7191L178.156 55.6222L172.732 58.4937C173.297 57.5069 173.24 56.1838 172.607 54.9881C171.24 52.406 168.508 51.8554 165.839 53.2682C163.188 54.6718 162.184 57.1774 163.496 59.6555ZM165.685 59.0959C164.905 57.6229 165.503 56.153 167.028 55.3457C168.553 54.5384 170.121 54.8616 170.901 56.3346C171.681 57.8076 171.111 59.3295 169.569 60.146C168.026 60.9624 166.465 60.5689 165.685 59.0959Z" fill="black"/>
<path d="M171.793 80.9843C172.291 83.4642 173.887 84.9437 176.045 84.9307L175.609 82.7583C174.651 82.6705 173.982 81.9249 173.723 80.6369C173.411 79.0797 174.079 78.0256 175.717 77.517L177.171 84.6646L177.882 84.5219C180.843 83.9278 182.384 81.7387 181.813 78.8935C181.253 76.1059 178.807 74.577 175.827 75.175C172.885 75.7653 171.226 78.1582 171.793 80.9843ZM179.894 79.2985C180.176 80.7019 179.492 81.7791 178.185 82.0414L177.228 77.2737C178.697 77.2189 179.616 77.9143 179.894 79.2985Z" fill="black"/>
<path d="M175.791 111.699C173.947 111.233 172.317 112.399 171.726 114.737C171.14 117.056 171.91 118.97 173.811 119.45C175.256 119.816 176.18 119.2 176.94 117.713L177.767 116.122C178.159 115.372 178.607 115.04 179.139 115.175C179.843 115.352 180.126 115.99 179.896 116.903C179.67 117.796 179.022 118.199 178.219 118.016L177.662 120.221C179.491 120.664 181.068 119.545 181.602 117.435C182.149 115.268 181.441 113.431 179.597 112.964C178.095 112.585 177.09 113.201 176.282 114.796L175.455 116.387C175.054 117.176 174.649 117.336 174.174 117.216C173.49 117.043 173.201 116.343 173.475 115.26C173.744 114.195 174.411 113.717 175.233 113.904L175.791 111.699Z" fill="black"/>
<path d="M176.879 135.752C176.535 136.457 176.833 137.322 177.555 137.675C178.278 138.027 179.125 137.721 179.469 137.016C179.83 136.276 179.55 135.419 178.828 135.067C178.105 134.714 177.24 135.012 176.879 135.752ZM166.953 129.579L165.904 131.729L174.61 135.976L175.658 133.826L166.953 129.579Z" fill="black"/>
<path d="M159.383 142.666L163.45 145.932C164.673 146.914 164.903 148.256 163.982 149.402C163.208 150.365 162.093 150.501 160.825 149.482L156.621 146.105L155.123 147.97L159.77 151.703C161.727 153.275 163.69 153.242 165.212 151.346C166.035 150.322 166.328 149.048 165.945 147.961L167.046 148.594L168.433 146.866L160.881 140.801L159.383 142.666Z" fill="black"/>
<path d="M149.754 160.246C147.961 157.744 145.211 157.205 142.82 158.919C140.764 160.392 140.137 162.748 141.211 164.752L143.171 163.347C142.762 162.338 143.104 161.368 144.077 160.672C145.32 159.781 146.747 160.157 147.809 161.639C148.872 163.121 148.717 164.656 147.474 165.547C146.549 166.209 145.565 166.215 144.702 165.483L142.757 166.876C144.324 168.624 146.647 168.769 148.798 167.227C151.125 165.559 151.501 162.684 149.754 160.246Z" fill="black"/>
<path d="M125.227 168.664C122.851 169.53 121.629 171.332 121.968 173.463L124.049 172.704C123.992 171.744 124.628 170.97 125.862 170.52C127.354 169.976 128.497 170.478 129.247 172.02L122.401 174.536L122.649 175.218C123.683 178.055 126.079 179.248 128.806 178.254C131.477 177.28 132.619 174.631 131.579 171.776C130.551 168.957 127.936 167.677 125.227 168.664ZM128.116 176.418C126.771 176.909 125.603 176.395 125.147 175.142L129.715 173.477C129.991 174.921 129.442 175.935 128.116 176.418Z" fill="black"/>
<path d="M85.4139 173.277L85.1517 175.595L91.0747 176.265L88.2538 178.176C85.8818 179.782 84.621 181.159 84.3962 183.147C84.0701 186.03 85.7638 187.978 88.8033 188.322C91.8233 188.663 94.0398 186.862 94.4119 183.747L91.9374 183.467C91.7108 185.296 90.6132 186.277 89.0545 186.101C87.5543 185.931 86.7811 184.916 86.964 183.299C87.1183 181.935 87.867 181.073 89.981 179.654L95.0828 176.245L95.2943 174.375L85.4139 173.277Z" fill="black"/>
<path d="M71.1888 177.467C72.9874 173.417 72.1284 169.796 68.6519 168.252C65.1755 166.708 61.895 168.491 60.0963 172.541C58.2897 176.608 59.2682 180.347 62.6192 181.835C65.9703 183.324 69.3821 181.535 71.1888 177.467ZM68.9309 176.464C67.554 179.564 65.5794 180.726 63.5186 179.81C61.4398 178.887 60.9774 176.644 62.3542 173.543C63.6992 170.515 65.6739 169.354 67.7526 170.277C69.8134 171.192 70.2759 173.436 68.9309 176.464Z" fill="black"/>
<path d="M27.5088 152.284L36.6922 144.438L35.1257 142.604L24.2278 151.915L27.8322 156.134L29.5466 154.669L27.5088 152.284Z" fill="black"/>
<path d="M23.039 113.957C22.8644 113.112 22.0262 112.544 21.2006 112.715C20.3557 112.89 19.8113 113.743 19.9859 114.588C20.1606 115.433 20.9987 116 21.8436 115.826C22.6693 115.655 23.2137 114.802 23.039 113.957Z" fill="black"/>
<path d="M46.4476 156.377L44.8038 158.033L49.0341 162.233L45.6363 161.982C42.7794 161.77 40.9364 162.068 39.5274 163.488C37.483 165.547 37.6034 168.126 39.7742 170.281C41.9312 172.422 44.7872 172.384 47.0113 170.171L45.244 168.417C43.9316 169.711 42.4623 169.799 41.349 168.694C40.2775 167.631 40.3005 166.355 41.4471 165.2C42.414 164.226 43.5363 164.014 46.0743 164.212L52.1906 164.703L53.5167 163.367L46.4476 156.377Z" fill="black"/>
<path d="M98 67L101.28 90.1887L121.455 78.2953L105.37 95.3177L127.248 103.676L103.911 101.714L111.017 124.029L98 104.56L84.9835 124.029L92.0894 101.714L68.7522 103.676L90.6295 95.3177L74.5451 78.2953L94.7198 90.1887L98 67Z" fill="#1A1A1A"/>
</svg>
